<?xml version="1.0" encoding="utf-8"?><!-- EXXIT 2.0 -->
<svg version="1.1" id="logo" xmlns="http://www.w3.org/2000/svg" xmlns:xlink="http://www.w3.org/1999/xlink" x="0px" y="0px"
	 viewBox="0 0 472 137" style="enable-background:new 0 0 472 137;" xml:space="preserve">
<style type="text/css">
	.st0{fill:#FFFFFF;}
</style>
<g>
	<path class="st0" d="M115.3,78.5l0-28.8c0-7.3-5.1-8.3-10.6-8.3v77H76.2c0,0-0.2-58.2-0.2-68.7c0-7.2-4.5-8.7-10.6-8.7l0,77.4H36.7
		c0.2-9.8,0-58.7,0-64.4c0-17.2-14.1-15.9-14.1-15.9l19.6-17.2h7.5c4.5,0,15.9,3.5,15.9,13.6L81,20.9h7.8c6.3,0,15.9,4,15.9,13.9
		l15.8-13.9h7.4c5.7,0,15.9,3.4,15.9,13.9l0.3,43.7l0,7.6c0,17.2,14.1,15.9,14.1,15.9l-19.6,17.2c-2,1.7-23.3-0.3-23.3-21.8
		L115.3,78.5z"/>
	<path d="M187,64.9V22.1h11.4l7.4,28.1h0.1l7.4-28.1h11.5v42.8h-7V31.2h-0.1L209,64.9h-6.2l-8.7-33.7H194v33.7H187z M236.8,64.9
		l2.3-9h11.3l2.1,9h7.8l-10.3-42.8h-10.5l-10.6,42.8H236.8z M244.7,31.3h0.1l4,17.3h-8.1L244.7,31.3z M272.7,64.9V46.4h11.6v18.5
		h8.2V22.1h-8.2v17.1h-11.6V22.1h-8.2v42.8H272.7z M298.8,51.1c0,10.6,5.6,14.4,13.5,14.4c8,0,13.5-3.8,13.5-14.4V35.8
		c0-10.6-5.6-14.4-13.5-14.4c-7.9,0-13.5,3.8-13.5,14.4V51.1z M307,34.8c0-4.7,2.1-6,5.3-6c3.3,0,5.4,1.3,5.4,6v17.4
		c0,4.7-2.1,6-5.4,6c-3.2,0-5.3-1.3-5.3-6V34.8z M332.2,22.1v30c0,9.4,5.5,13.4,13.9,13.4c8.4,0,14-4,14-13.4v-30h-8.2V52
		c0,4.1-1.8,6.2-5.8,6.2c-4,0-5.7-2.1-5.7-6.2V22.1H332.2z M206.3,86.7c-0.4-7.5-4.4-11.6-10.6-11.6c-6.2,0-10.3,3.9-10.3,10
		c0,12.2,17.2,13.3,17.2,23.1c0,4.6-2.5,7.1-6.3,7.1c-4.6,0-6.9-3.2-7-8.2h-4.3c0.1,7.2,4.2,12.1,10.9,12.1c7,0,11-4.1,11-10.9
		c0-13.8-17.2-13.9-17.2-23.5c0-3.3,2.3-5.6,5.9-5.6c4.5,0,6.2,3.3,6.6,7.7H206.3z M219.5,75.6l-9.4,42.8h4.6l2.5-12.7h10.9
		l2.5,12.7h4.6l-9.4-42.8H219.5z M222.7,78.8h0.1l4.7,23h-9.6L222.7,78.8z M242,75.6v42.8h4.6V81.2h0.1l13.3,37.2h5V75.6h-4.6v31.5
		h-0.1l-11-31.5H242z M282.3,118.5V84.8h0.1l8.7,33.7h6.2l8.7-33.7h0.1v33.7h7V75.6h-11.5l-7.4,28.1h-0.1l-7.4-28.1h-11.4v42.8
		H282.3z M321.8,118.5h8.2V75.6h-8.2V118.5z M360,118.5h4.3V96.5h-13.9v6.8h5.7v2.6c0,3.7-1.9,5.9-5,5.9c-3.3,0-5.3-1.3-5.3-6V88.3
		c0-4.7,2.1-6,5.3-6c3,0,5,1.8,5,7.3h8.2C363.9,79.9,359.4,75,351,75c-7.9,0-13.5,3.8-13.5,14.4v15.3c0,10.6,5.6,14.3,13.5,14.3
		c3.1,0,5.5-1.7,7.7-4.1L360,118.5z M369.7,75.6v30c0,9.4,5.5,13.4,13.9,13.4c8.4,0,14-4,14-13.4v-30h-8.2v30c0,4.1-1.8,6.2-5.8,6.2
		c-4,0-5.8-2.1-5.8-6.2v-30H369.7z M426.5,118.5v-7.2h-14.8V100h10.9v-7.2h-10.9v-9.8H426v-7.2h-22.4v42.8H426.5z M452.6,118.5v-7.2
		h-13.2V75.6h-8.2v42.8H452.6z"/>
</g>
</svg>
